<svg width="59" height="42" viewBox="0 0 59 42" fill="none" xmlns="http://www.w3.org/2000/svg">
<g clip-path="url(#clip0_374_29)">
<path opacity="0.8" d="M44.5654 0H29.9097C23.0061 0 17.4097 5.59644 17.4097 12.5C17.4097 19.4036 23.0061 25 29.9097 25H44.5654C51.4689 25 57.0654 19.4036 57.0654 12.5C57.0654 5.59644 51.4689 0 44.5654 0Z" fill="#5282BB"/>
<path opacity="0.8" d="M28.5574 6H14C6.26801 6 0 12.268 0 20C0 27.732 6.26801 34 14 34H28.5574C36.2894 34 42.5574 27.732 42.5574 20C42.5574 12.268 36.2894 6 28.5574 6Z" fill="#5282BB"/>
<path opacity="0.8" d="M44.9999 14H19.8032C12.0712 14 5.80322 20.268 5.80322 28C5.80322 35.732 12.0712 42 19.8032 42H44.9999C52.7319 42 58.9999 35.732 58.9999 28C58.9999 20.268 52.7319 14 44.9999 14Z" fill="#1F5AA0"/>
</g>
<defs>
<clipPath id="clip0_374_29">
<rect width="59" height="42" fill="white"/>
</clipPath>
</defs>
</svg>
