<svg width="124" height="68" viewBox="0 0 124 68" fill="none" xmlns="http://www.w3.org/2000/svg">
<path d="M98.4016 48.5895C98.4068 50.7343 97.9967 52.8596 97.1943 54.8471C95.9502 57.9708 93.8035 60.6486 91.0308 62.5353C88.2581 64.422 84.9865 65.4311 81.6378 65.4325H16.5306C12.6922 65.4325 9.01084 63.9005 6.29666 61.1735C3.58247 58.4465 2.05774 54.7479 2.05774 50.8913C2.05774 47.0347 3.58247 43.3361 6.29666 40.6091C9.01084 37.882 12.6922 36.35 16.5306 36.35C18.059 36.346 19.578 36.5879 21.0301 37.0668C21.9107 30.4481 25.1526 24.3756 30.1534 19.9774C35.1541 15.5792 41.5739 13.1542 48.22 13.153C48.851 13.153 49.482 13.153 50.0994 13.153C55.7518 13.5426 61.1455 15.681 65.5399 19.2743C69.9342 22.8676 73.1137 27.7396 74.6415 33.2212C76.8337 32.2004 79.2216 31.6735 81.6378 31.6775C83.845 31.6775 86.0306 32.1155 88.0689 32.9662C90.1073 33.8169 91.9583 35.0638 93.5159 36.6351C95.0735 38.2064 96.3069 40.0713 97.1453 42.1228C97.9837 44.1742 98.4106 46.3718 98.4016 48.5895V48.5895Z" stroke="#100F0F" stroke-width="3" stroke-miterlimit="10"/>
<path d="M121.942 38.004C121.942 42.4711 120.176 46.7552 117.032 49.9138C113.888 53.0725 109.625 54.847 105.179 54.847H97.1943C97.9967 52.8596 98.4068 50.7343 98.4016 48.5895C98.3979 44.1248 96.6302 39.8443 93.4868 36.6886C90.3433 33.5329 86.0815 31.7602 81.6378 31.7602C79.2216 31.7562 76.8337 32.2831 74.6415 33.304C73.1137 27.8223 69.9342 22.9503 65.5399 19.357C61.1455 15.7637 55.7518 13.6253 50.0994 13.2357C53.2212 9.22502 57.3875 6.16141 62.1364 4.38452C66.8853 2.60763 72.0311 2.18689 77.0035 3.16893C81.9759 4.15098 86.5804 6.49744 90.3065 9.94816C94.0327 13.3989 96.735 17.819 98.1135 22.7185C100.306 21.6976 102.694 21.1707 105.11 21.1748C107.316 21.1657 109.502 21.5942 111.543 22.4357C113.584 23.2772 115.439 24.5152 117.003 26.0787C118.567 27.6421 119.808 29.5003 120.656 31.5467C121.503 33.5931 121.94 35.7875 121.942 38.004Z" stroke="#100F0F" stroke-width="3" stroke-miterlimit="10"/>
</svg>
