<svg width="22" height="27" viewBox="0 0 22 27" fill="none" xmlns="http://www.w3.org/2000/svg">
<g clip-path="url(#clip0_28_165)">
<path d="M11 1.11142C8.43516 1.06378 5.95583 2.01246 4.10667 3.74907C2.25751 5.48568 1.18975 7.86819 1.13794 10.3732C1.14542 12.7469 2.10393 15.0235 3.8083 16.7157L11 25.2514L18.1765 16.7157C19.892 15.0295 20.8571 12.7503 20.8621 10.3732C20.8103 7.86819 19.7425 5.48568 17.8933 3.74907C16.0442 2.01246 13.5649 1.06378 11 1.11142V1.11142ZM11 5.14215C12.0492 5.18283 13.0632 5.52385 13.9156 6.12281C14.768 6.72177 15.4212 7.55224 15.7942 8.51095C16.1672 9.46966 16.2435 10.5143 16.0135 11.515C15.7834 12.5157 15.2573 13.4283 14.5005 14.1392C13.7437 14.8502 12.7895 15.3282 11.7568 15.5138C10.724 15.6994 9.65826 15.5844 8.69192 15.1831C7.72558 14.7818 6.90144 14.1119 6.32179 13.2567C5.74214 12.4015 5.43249 11.3988 5.43167 10.3732C5.44548 9.6726 5.6005 8.98151 5.88784 8.33941C6.17517 7.69732 6.58925 7.1168 7.10634 6.63103C7.62343 6.14525 8.23349 5.76373 8.90158 5.50827C9.56966 5.2528 10.2827 5.1284 11 5.14215V5.14215Z" stroke="#100F0F" stroke-width="1.5" stroke-miterlimit="10"/>
<path d="M11 15.5895C14.0753 15.5895 16.5683 13.2541 16.5683 10.3732C16.5683 7.49236 14.0753 5.15697 11 5.15697C7.92476 5.15697 5.43176 7.49236 5.43176 10.3732C5.43176 13.2541 7.92476 15.5895 11 15.5895Z" stroke="#100F0F" stroke-width="1.5" stroke-miterlimit="10"/>
</g>
<defs>
<clipPath id="clip0_28_165">
<rect width="22" height="27" fill="white"/>
</clipPath>
</defs>
</svg>
