<svg width="59" height="42" viewBox="0 0 59 42" fill="none" xmlns="http://www.w3.org/2000/svg">
<g clip-path="url(#clip0_487_600)">
<path d="M44.3934 0H29.6105C22.647 0 17.002 5.59644 17.002 12.5C17.002 19.4036 22.647 25 29.6105 25H44.3934C51.3569 25 57.002 19.4036 57.002 12.5C57.002 5.59644 51.3569 0 44.3934 0Z" fill="#5282BB" fill-opacity="0.8"/>
<path d="M28.8544 6H14.1456C6.3332 6 0 11.5964 0 18.5C0 25.4036 6.3332 31 14.1456 31H28.8544C36.6668 31 43 25.4036 43 18.5C43 11.5964 36.6668 6 28.8544 6Z" fill="#5282BB" fill-opacity="0.8"/>
<path d="M44.5254 14H18.4746C10.4805 14 4 20.268 4 28C4 35.732 10.4805 42 18.4746 42H44.5254C52.5195 42 59 35.732 59 28C59 20.268 52.5195 14 44.5254 14Z" fill="#1F5AA0" fill-opacity="0.8"/>
</g>
<defs>
<clipPath id="clip0_487_600">
<rect width="59" height="42" fill="white"/>
</clipPath>
</defs>
</svg>
