<svg width="59" height="42" viewBox="0 0 59 42" fill="none" xmlns="http://www.w3.org/2000/svg">
<path d="M44.5 0H0.5C0.223858 0 0 0.223858 0 0.5C0 0.776142 0.223858 1 0.5 1H44.5C44.7761 1 45 0.776142 45 0.5C45 0.223858 44.7761 0 44.5 0Z" fill="#667179"/>
<path d="M55.5 4H11.5C11.2239 4 11 4.22386 11 4.5C11 4.77614 11.2239 5 11.5 5H55.5C55.7761 5 56 4.77614 56 4.5C56 4.22386 55.7761 4 55.5 4Z" fill="#667179"/>
<path d="M53.5 12H9.5C9.22386 12 9 12.2239 9 12.5C9 12.7761 9.22386 13 9.5 13H53.5C53.7761 13 54 12.7761 54 12.5C54 12.2239 53.7761 12 53.5 12Z" fill="#667179"/>
<path d="M55.5 20H11.5C11.2239 20 11 20.2239 11 20.5C11 20.7761 11.2239 21 11.5 21H55.5C55.7761 21 56 20.7761 56 20.5C56 20.2239 55.7761 20 55.5 20Z" fill="#667179"/>
<path d="M47.5 28H3.5C3.22386 28 3 28.2239 3 28.5C3 28.7761 3.22386 29 3.5 29H47.5C47.7761 29 48 28.7761 48 28.5C48 28.2239 47.7761 28 47.5 28Z" fill="#667179"/>
<path d="M47.5 8H3.5C3.22386 8 3 8.22386 3 8.5C3 8.77614 3.22386 9 3.5 9H47.5C47.7761 9 48 8.77614 48 8.5C48 8.22386 47.7761 8 47.5 8Z" fill="#667179"/>
<path d="M47.5 16H3.5C3.22386 16 3 16.2239 3 16.5C3 16.7761 3.22386 17 3.5 17H47.5C47.7761 17 48 16.7761 48 16.5C48 16.2239 47.7761 16 47.5 16Z" fill="#667179"/>
<path d="M50.5 24H6.5C6.22386 24 6 24.2239 6 24.5C6 24.7761 6.22386 25 6.5 25H50.5C50.7761 25 51 24.7761 51 24.5C51 24.2239 50.7761 24 50.5 24Z" fill="#667179"/>
<path d="M55.5 32H11.5C11.2239 32 11 32.2239 11 32.5C11 32.7761 11.2239 33 11.5 33H55.5C55.7761 33 56 32.7761 56 32.5C56 32.2239 55.7761 32 55.5 32Z" fill="#667179"/>
<path d="M50.5 36H6.5C6.22386 36 6 36.2239 6 36.5C6 36.7761 6.22386 37 6.5 37H50.5C50.7761 37 51 36.7761 51 36.5C51 36.2239 50.7761 36 50.5 36Z" fill="#667179"/>
<path d="M58.5 40H14.5C14.2239 40 14 40.2239 14 40.5C14 40.7761 14.2239 41 14.5 41H58.5C58.7761 41 59 40.7761 59 40.5C59 40.2239 58.7761 40 58.5 40Z" fill="#667179"/>
</svg>
