<svg width="59" height="42" viewBox="0 0 59 42" fill="none" xmlns="http://www.w3.org/2000/svg">
<path opacity="0.8" d="M44.3915 0H29.6085C22.645 0 17 5.59644 17 12.5C17 19.4036 22.645 25 29.6085 25H44.3915C51.355 25 57 19.4036 57 12.5C57 5.59644 51.355 0 44.3915 0Z" fill="#5282BB"/>
<path opacity="0.8" d="M28.8544 6H14.1456C6.3332 6 0 11.5964 0 18.5C0 25.4036 6.3332 31 14.1456 31H28.8544C36.6668 31 43 25.4036 43 18.5C43 11.5964 36.6668 6 28.8544 6Z" fill="#5282BB"/>
<path d="M3.10588 30.0751L4.07181 30.3339L1.09539 41.442C1.02392 41.7088 0.749752 41.8671 0.483019 41.7956C0.216286 41.7241 0.0579949 41.45 0.129466 41.1832L3.10588 30.0751Z" fill="#2064B6"/>
<path d="M12.7171 33.0239L13.6831 33.2827L11.4831 41.4931C11.4116 41.7598 11.1375 41.9181 10.8707 41.8467C10.604 41.7752 10.4457 41.501 10.5172 41.2343L12.7171 33.0239Z" fill="#2064B6"/>
<path d="M22.7171 33.0239L23.6831 33.2827L21.4831 41.4931C21.4116 41.7598 21.1375 41.9181 20.8707 41.8467C20.604 41.7752 20.4457 41.501 20.5172 41.2343L22.7171 33.0239Z" fill="#2064B6"/>
<path d="M32.8465 32.041L33.8125 32.2998L31.3537 41.4761C31.2822 41.7429 31.008 41.9012 30.7413 41.8297C30.4746 41.7582 30.3163 41.484 30.3878 41.2173L32.8465 32.041Z" fill="#2064B6"/>
<path d="M43.4937 27.1261L44.4596 27.3849L40.7067 41.3908C40.6352 41.6576 40.3611 41.8159 40.0943 41.7444C39.8276 41.6729 39.6693 41.3988 39.7408 41.132L43.4937 27.1261Z" fill="#2064B6"/>
<path d="M54.1407 22.2113L55.1067 22.4701L50.0597 41.3057C49.9882 41.5724 49.714 41.7307 49.4473 41.6592C49.1806 41.5878 49.0223 41.3136 49.0938 41.0469L54.1407 22.2113Z" fill="#2064B6"/>
</svg>
