<svg width="59" height="42" viewBox="0 0 59 42" fill="none" xmlns="http://www.w3.org/2000/svg">
<path d="M44.3915 0H29.6085C22.645 0 17 5.59644 17 12.5C17 19.4036 22.645 25 29.6085 25H44.3915C51.355 25 57 19.4036 57 12.5C57 5.59644 51.355 0 44.3915 0Z" fill="#5282BB" fill-opacity="0.8"/>
<path d="M28.8544 6H14.1456C6.3332 6 0 11.5964 0 18.5C0 25.4036 6.3332 31 14.1456 31H28.8544C36.6668 31 43 25.4036 43 18.5C43 11.5964 36.6668 6 28.8544 6Z" fill="#5282BB" fill-opacity="0.8"/>
<path d="M28.8745 32.8368C28.8745 32.4994 29.1545 32.2259 29.4999 32.2259C29.8454 32.2259 30.1254 32.4994 30.1254 32.8368V41.5113C30.1254 41.7812 29.8454 42 29.4999 42C29.1545 42 28.8745 41.7812 28.8745 41.5113V32.8368Z" fill="#2064B6"/>
<path d="M25.122 37.7238C24.7766 37.7238 24.4966 37.4503 24.4966 37.113C24.4966 36.7756 24.7766 36.5021 25.122 36.5021H34.0031C34.2794 36.5021 34.5034 36.7756 34.5034 37.113C34.5034 37.4503 34.2794 37.7238 34.0031 37.7238H25.122Z" fill="#2064B6"/>
<path d="M25.9576 34.5249C25.7134 34.2863 25.7134 33.8995 25.9576 33.661C26.2018 33.4224 26.5978 33.4224 26.8421 33.661L33.122 39.7949C33.3174 39.9857 33.2778 40.3338 33.0336 40.5724C32.7893 40.8109 32.4329 40.8496 32.2375 40.6588L25.9576 34.5249Z" fill="#2064B6"/>
<path d="M26.8401 40.5752C26.5959 40.8138 26.1999 40.8138 25.9556 40.5752C25.7114 40.3366 25.7114 39.9499 25.9556 39.7113L32.2323 33.5807C32.4275 33.3899 32.7839 33.4287 33.0281 33.6672C33.2724 33.9058 33.312 34.2538 33.1167 34.4446L26.8401 40.5752Z" fill="#2064B6"/>
</svg>
