<svg width="59" height="42" viewBox="0 0 59 42" fill="none" xmlns="http://www.w3.org/2000/svg">
<g clip-path="url(#clip0_487_793)">
<path d="M44.3915 0H29.6085C22.645 0 17 5.59644 17 12.5C17 19.4036 22.645 25 29.6085 25H44.3915C51.355 25 57 19.4036 57 12.5C57 5.59644 51.355 0 44.3915 0Z" fill="#5282BB" fill-opacity="0.8"/>
<path d="M28.8544 6H14.1456C6.3332 6 0 11.5964 0 18.5C0 25.4036 6.3332 31 14.1456 31H28.8544C36.6668 31 43 25.4036 43 18.5C43 11.5964 36.6668 6 28.8544 6Z" fill="#5282BB" fill-opacity="0.8"/>
<path d="M28.8745 32.8368C28.8745 32.4994 29.1545 32.2259 29.4999 32.2259C29.8454 32.2259 30.1254 32.4994 30.1254 32.8368V41.5113C30.1254 41.7812 29.8454 42 29.4999 42C29.1545 42 28.8745 41.7812 28.8745 41.5113V32.8368Z" fill="#2064B6"/>
<path d="M25.122 37.7238C24.7766 37.7238 24.4966 37.4503 24.4966 37.113C24.4966 36.7756 24.7766 36.5021 25.122 36.5021H34.0031C34.2794 36.5021 34.5034 36.7756 34.5034 37.113C34.5034 37.4503 34.2794 37.7238 34.0031 37.7238H25.122Z" fill="#2064B6"/>
<path d="M25.9576 34.5249C25.7134 34.2863 25.7134 33.8995 25.9576 33.661C26.2018 33.4224 26.5978 33.4224 26.8421 33.661L33.122 39.7949C33.3174 39.9857 33.2778 40.3338 33.0336 40.5724C32.7893 40.8109 32.4329 40.8496 32.2375 40.6588L25.9576 34.5249Z" fill="#2064B6"/>
<path d="M26.8401 40.5752C26.5959 40.8138 26.1999 40.8138 25.9556 40.5752C25.7114 40.3366 25.7114 39.9499 25.9556 39.7113L32.2323 33.5807C32.4275 33.3899 32.7839 33.4287 33.0281 33.6672C33.2724 33.9058 33.312 34.2538 33.1167 34.4446L26.8401 40.5752Z" fill="#2064B6"/>
<path d="M46.3784 32.8549C46.3784 32.5175 46.6584 32.244 47.0038 32.244C47.3493 32.244 47.6293 32.5175 47.6293 32.8549V41.5294C47.6293 41.7993 47.3493 42.0181 47.0038 42.0181C46.6584 42.0181 46.3784 41.7993 46.3784 41.5294V32.8549Z" fill="#2064B6"/>
<path d="M42.6259 37.742C42.2805 37.742 42.0005 37.4685 42.0005 37.1311C42.0005 36.7937 42.2805 36.5202 42.6259 36.5202H51.507C51.7833 36.5202 52.0073 36.7937 52.0073 37.1311C52.0073 37.4685 51.7833 37.742 51.507 37.742H42.6259Z" fill="#2064B6"/>
<path d="M43.4615 34.543C43.2173 34.3045 43.2173 33.9177 43.4615 33.6791C43.7057 33.4405 44.1017 33.4405 44.346 33.6791L50.6259 39.813C50.8213 40.0038 50.7817 40.352 50.5375 40.5905C50.2932 40.8291 49.9368 40.8677 49.7414 40.6769L43.4615 34.543Z" fill="#2064B6"/>
<path d="M44.344 40.5933C44.0998 40.8319 43.7038 40.8319 43.4596 40.5933C43.2153 40.3548 43.2153 39.968 43.4596 39.7294L49.7362 33.5988C49.9314 33.4081 50.2878 33.4468 50.532 33.6853C50.7763 33.9239 50.8159 34.272 50.6206 34.4627L44.344 40.5933Z" fill="#2064B6"/>
<path d="M11.3711 32.8307C11.3711 32.4933 11.6511 32.2198 11.9965 32.2198C12.3419 32.2198 12.6219 32.4933 12.6219 32.8307V41.5052C12.6219 41.7751 12.3419 41.9939 11.9965 41.9939C11.6511 41.9939 11.3711 41.7751 11.3711 41.5052V32.8307Z" fill="#2064B6"/>
<path d="M7.61859 37.7177C7.27318 37.7177 6.99316 37.4442 6.99316 37.1069C6.99316 36.7695 7.27318 36.496 7.61859 36.496H16.4997C16.7759 36.496 17 36.7695 17 37.1069C17 37.4442 16.7759 37.7177 16.4997 37.7177H7.61859Z" fill="#2064B6"/>
<path d="M8.4537 34.5188C8.20945 34.2802 8.20945 33.8934 8.4537 33.6549C8.69794 33.4163 9.09394 33.4163 9.33819 33.6549L15.6181 39.7888C15.8135 39.9796 15.7739 40.3277 15.5297 40.5663C15.2854 40.8048 14.929 40.8435 14.7336 40.6527L8.4537 34.5188Z" fill="#2064B6"/>
<path d="M9.33623 40.5691C9.09198 40.8077 8.69598 40.8077 8.45174 40.5691C8.20749 40.3305 8.20749 39.9438 8.45174 39.7052L14.7284 33.5746C14.9236 33.3838 15.28 33.4225 15.5242 33.6611C15.7685 33.8997 15.8081 34.2477 15.6128 34.4385L9.33623 40.5691Z" fill="#2064B6"/>
</g>
<defs>
<clipPath id="clip0_487_793">
<rect width="59" height="42" fill="white"/>
</clipPath>
</defs>
</svg>
