<svg width="59" height="42" viewBox="0 0 59 42" fill="none" xmlns="http://www.w3.org/2000/svg">
<path d="M20 33L25 24L24 32H31.5L24.5 41.5L27 33H20Z" fill="#EAC505"/>
<path opacity="0.8" d="M28.8544 6H14.1456C6.3332 6 0 11.5964 0 18.5C0 25.4036 6.3332 31 14.1456 31H28.8544C36.6668 31 43 25.4036 43 18.5C43 11.5964 36.6668 6 28.8544 6Z" fill="#5282BB"/>
<path opacity="0.8" d="M44.3915 0H29.6085C22.645 0 17 5.59644 17 12.5C17 19.4036 22.645 25 29.6085 25H44.3915C51.355 25 57 19.4036 57 12.5C57 5.59644 51.355 0 44.3915 0Z" fill="#5282BB"/>
<path d="M35 31.8L40.2174 21L39.1739 30.6H47L39.6957 42L42.3043 31.8H35Z" fill="#EAC505"/>
<path d="M3.57024 30.0751L4.53616 30.3339L1.55975 41.442C1.48827 41.7088 1.21411 41.8671 0.947375 41.7956C0.680642 41.7241 0.52235 41.45 0.593821 41.1832L3.57024 30.0751Z" fill="#2064B6"/>
<path d="M8.18148 33.0239L9.14741 33.2827L6.94744 41.4931C6.87597 41.7598 6.60181 41.9181 6.33507 41.8467C6.06834 41.7752 5.91005 41.501 5.98152 41.2343L8.18148 33.0239Z" fill="#2064B6"/>
<path d="M13.1814 33.0239L14.1474 33.2827L11.9474 41.4931C11.8759 41.7598 11.6018 41.9181 11.335 41.8467C11.0683 41.7752 10.91 41.501 10.9815 41.2343L13.1814 33.0239Z" fill="#2064B6"/>
<path d="M18.1814 33.0239L19.1474 33.2827L16.9474 41.4931C16.8759 41.7598 16.6018 41.9181 16.335 41.8467C16.0683 41.7752 15.91 41.501 15.9815 41.2343L18.1814 33.0239Z" fill="#2064B6"/>
<path d="M33.3108 32.041L34.2768 32.2998L31.818 41.4761C31.7465 41.7429 31.4723 41.9012 31.2056 41.8297C30.9389 41.7582 30.7806 41.484 30.8521 41.2173L33.3108 32.041Z" fill="#2064B6"/>
<path d="M49.0874 26.1432L50.0534 26.402L46.0417 41.3739C45.9702 41.6406 45.696 41.7989 45.4293 41.7274C45.1626 41.6559 45.0043 41.3818 45.0758 41.115L49.0874 26.1432Z" fill="#2064B6"/>
<path d="M54.6051 22.2113L55.5711 22.4701L50.5241 41.3057C50.4526 41.5724 50.1784 41.7307 49.9117 41.6592C49.645 41.5878 49.4867 41.3136 49.5582 41.0469L54.6051 22.2113Z" fill="#2064B6"/>
</svg>
