<?xml version="1.0" standalone="no"?>
<!DOCTYPE svg PUBLIC "-//W3C//DTD SVG 20010904//EN"
 "http://www.w3.org/TR/2001/REC-SVG-20010904/DTD/svg10.dtd">
<svg version="1.0" xmlns="http://www.w3.org/2000/svg"
 width="700.000000pt" height="700.000000pt" viewBox="0 0 700.000000 700.000000"
 preserveAspectRatio="xMidYMid meet">
<metadata>
Created by potrace 1.14, written by Peter Selinger 2001-2017
</metadata>
<g transform="translate(0.000000,700.000000) scale(0.100000,-0.100000)"
fill="#000000" stroke="none">
<path d="M4018 5345 c-2 -1 -46 -5 -98 -9 -130 -9 -158 -14 -289 -47 -230 -59
-438 -162 -625 -309 -11 -8 -67 -61 -125 -117 l-106 -102 -80 -2 c-122 -2
-188 -9 -311 -33 -110 -22 -321 -92 -351 -118 -7 -6 -13 -8 -13 -5 0 3 -30
-10 -67 -30 -429 -229 -728 -612 -841 -1073 -8 -32 -11 -35 -43 -33 -72 5
-245 4 -269 -2 -14 -3 -41 -8 -60 -11 -206 -34 -450 -199 -574 -389 -100 -153
-145 -292 -151 -470 -13 -379 200 -714 550 -867 56 -24 129 -49 165 -54 8 -2
40 -7 70 -13 66 -12 3924 -9 3985 3 228 46 414 144 571 300 74 74 174 209 189
255 5 17 22 19 238 20 206 0 258 3 344 16 123 19 329 108 438 190 193 144 330
348 392 583 33 125 38 342 10 462 -131 565 -663 911 -1235 805 -45 -9 -93 -20
-106 -25 -20 -7 -24 -4 -36 28 -21 60 -98 212 -143 282 -280 436 -766 726
-1267 756 -52 3 -110 7 -127 8 -18 2 -34 2 -35 1z m282 -235 c163 -30 241 -55
398 -132 291 -141 529 -387 670 -690 22 -48 92 -254 92 -272 1 -36 18 -35 116
8 134 58 204 75 335 80 407 15 769 -270 852 -670 14 -67 16 -246 3 -305 -56
-260 -218 -473 -445 -589 -137 -69 -234 -87 -481 -89 l-207 -2 13 68 c27 141
13 339 -35 493 -103 331 -396 604 -740 689 -177 44 -353 45 -522 2 l-68 -17
-15 35 c-86 215 -223 419 -387 576 -109 104 -136 126 -244 197 -154 101 -296
164 -489 217 l-99 27 69 59 c187 158 427 269 681 314 144 26 360 26 503 1z
m-1295 -588 c414 -87 753 -326 961 -677 66 -112 99 -189 139 -322 20 -64 38
-119 40 -123 3 -5 26 2 53 14 162 78 284 106 437 101 273 -8 502 -131 661
-351 101 -141 147 -287 147 -474 1 -150 -20 -236 -91 -380 -39 -80 -61 -109
-142 -191 -137 -138 -274 -211 -465 -247 -22 -4 -913 -7 -1980 -7 -1874 0
-1942 1 -2010 19 -88 24 -144 49 -220 99 -114 76 -227 216 -270 337 -43 118
-53 292 -25 405 32 129 125 280 222 360 26 22 54 45 61 52 33 28 161 85 233
104 129 33 264 28 409 -17 44 -14 87 -27 96 -30 9 -2 16 1 16 8 5 98 54 320
92 420 132 342 380 614 708 777 112 55 291 115 386 127 23 4 60 10 82 14 78
15 353 4 460 -18z"/>
</g>
</svg>
